<svg width="321" height="67" viewBox="0 0 321 67" fill="none" xmlns="http://www.w3.org/2000/svg">
<path d="M89.6953 1.27148H84.3516V0H89.6953V1.27148ZM118.523 1.27148H113.18V0H118.523V1.27148ZM233.836 1.27148H228.492V0H233.836V1.27148ZM10.418 17.2715H5.07422V16H10.418V17.2715ZM24.832 17.2715H19.4883V16H24.832V17.2715ZM32.0391 17.2715H26.6953V16H32.0391V17.2715ZM60.8672 17.2715H55.5234V16H60.8672V17.2715ZM68.0742 17.2715H62.7305V16H68.0742V17.2715ZM75.2812 17.2715H69.9375V16H75.2812V17.2715ZM80.4199 18.4023H79.4004V7.46875H80.4199V18.4023ZM94.834 18.4023H93.8145V7.46875H94.834V18.4023ZM104.109 17.2715H98.7656V16H104.109V17.2715ZM109.248 18.4023H108.229V7.46875H109.248V18.4023ZM123.662 18.4023H122.643V7.46875H123.662V18.4023ZM132.938 17.2715H127.594V16H132.938V17.2715ZM140.145 17.2715H134.801V16H140.145V17.2715ZM168.973 17.2715H163.629V16H168.973V17.2715ZM176.18 17.2715H170.836V16H176.18V17.2715ZM183.387 17.2715H178.043V16H183.387V17.2715ZM212.215 17.2715H206.871V16H212.215V17.2715ZM219.422 17.2715H214.078V16H219.422V17.2715ZM224.561 18.4023H223.541V7.46875H224.561V18.4023ZM238.975 18.4023H237.955V7.46875H238.975V18.4023ZM255.457 17.2715H250.113V16H255.457V17.2715ZM262.664 17.2715H257.32V16H262.664V17.2715ZM269.871 17.2715H264.527V16H269.871V17.2715ZM277.078 17.2715H271.734V16H277.078V17.2715ZM284.285 17.2715H278.941V16H284.285V17.2715ZM313.113 17.2715H307.77V16H313.113V17.2715ZM320.32 17.2715H314.977V16H320.32V17.2715ZM1.14258 34.4023H0.123047V23.4688H1.14258V34.4023ZM15.3457 23.832L15.1816 26.1816H14.0918V23.8262V23H15.3457V23.832ZM24.832 33.2715H19.4883V32H24.832V33.2715ZM34.4414 23.4688H35.9648L39.1582 32.7324H37.6348L34.4414 23.4688ZM50.2559 32.7324H48.7383L51.9316 23.4688H53.4492L50.2559 32.7324ZM68.0742 33.2715H62.7305V32H68.0742V33.2715ZM77.6836 23.4688H79.207L82.4004 32.7324H80.877L77.6836 23.4688ZM96.9023 33.2715H91.5586V32H96.9023V33.2715ZM104.109 33.2715H98.7656V32H104.109V33.2715ZM109.248 34.4023H108.229V23.4688H109.248V34.4023ZM123.451 23.832L123.287 26.1816H122.197V23.8262V23H123.451V23.832ZM132.938 33.2715H127.594V32H132.938V33.2715ZM142.547 23.4688H144.07L147.264 32.7324H145.74L142.547 23.4688ZM158.361 32.7324H156.844L160.037 23.4688H161.555L158.361 32.7324ZM176.18 33.2715H170.836V32H176.18V33.2715ZM185.789 23.4688H187.312L190.506 32.7324H188.982L185.789 23.4688ZM201.604 32.7324H200.086L203.279 23.4688H204.797L201.604 32.7324ZM219.422 33.2715H214.078V32H219.422V33.2715ZM225.656 24.9746H224.373L222.826 23.3398H224.619L225.656 24.9746ZM238.975 34.4023H237.955V23.4688H238.975V34.4023ZM244.846 32.7324H243.328L246.521 23.4688H248.039L244.846 32.7324ZM262.664 33.2715H257.32V32H262.664V33.2715ZM272.273 23.4688H273.797L276.99 32.7324H275.467L272.273 23.4688ZM286.688 23.4688H288.211L291.404 32.7324H289.881L286.688 23.4688ZM302.502 32.7324H300.984L304.178 23.4688H305.695L302.502 32.7324ZM316.916 32.7324H315.398L318.592 23.4688H320.109L316.916 32.7324ZM1.14258 50.4023H0.123047V39.4688H1.14258V50.4023ZM15.5566 50.4023H14.5371V39.4688H15.5566V50.4023ZM29.9707 50.4023H28.9512V39.4688H29.9707V50.4023ZM44.3848 50.4023H43.3652V39.4688H44.3848V50.4023ZM68.0742 49.2715H62.7305V48H68.0742V49.2715ZM75.2812 49.2715H69.9375V48H75.2812V49.2715ZM79.084 48.7324H77.5664L80.7598 39.4688H82.2773L79.084 48.7324ZM94.834 50.4023H93.8145V39.4688H94.834V50.4023ZM104.109 49.2715H98.7656V48H104.109V49.2715ZM109.248 50.4023H108.229V39.4688H109.248V50.4023ZM123.662 50.4023H122.643V39.4688H123.662V50.4023ZM138.076 50.4023H137.057V39.4688H138.076V50.4023ZM152.49 50.4023H151.471V39.4688H152.49V50.4023ZM164.783 44.5312C164.783 43.9805 164.824 43.4629 164.906 42.9785C164.992 42.4902 165.107 42.0391 165.252 41.625C165.396 41.2148 165.564 40.8398 165.756 40.5C165.951 40.1602 166.156 39.8594 166.371 39.5977C166.586 39.3359 166.807 39.1152 167.033 38.9355C167.264 38.752 167.486 38.6113 167.701 38.5137L168.018 39.4043C167.893 39.498 167.768 39.6113 167.643 39.7441C167.518 39.877 167.395 40.0293 167.273 40.2012C167.117 40.4238 166.971 40.6875 166.834 40.9922C166.701 41.2969 166.584 41.6289 166.482 41.9883C166.393 42.3359 166.32 42.7207 166.266 43.1426C166.211 43.5645 166.184 44.0234 166.184 44.5195V44.6719C166.184 45.1602 166.209 45.6113 166.26 46.0254C166.314 46.4395 166.373 46.7695 166.436 47.0156C166.521 47.3594 166.621 47.6777 166.734 47.9707C166.852 48.2637 166.977 48.5195 167.109 48.7383C167.25 48.9766 167.398 49.1836 167.555 49.3594C167.711 49.5352 167.865 49.6816 168.018 49.7988L167.701 50.6777C167.486 50.5801 167.264 50.4395 167.033 50.2559C166.807 50.0723 166.586 49.8496 166.371 49.5879C166.156 49.3301 165.951 49.0312 165.756 48.6914C165.564 48.3516 165.396 47.9746 165.252 47.5605C165.107 47.1504 164.992 46.7031 164.906 46.2188C164.824 45.7344 164.783 45.2148 164.783 44.6602V44.5312ZM176.18 49.2715H170.836V48H176.18V49.2715ZM182.338 44.6602C182.338 45.1953 182.295 45.7031 182.209 46.1836C182.123 46.6602 182.006 47.1055 181.857 47.5195C181.709 47.9336 181.535 48.3105 181.336 48.6504C181.141 48.9941 180.932 49.2988 180.709 49.5645C180.486 49.834 180.258 50.0625 180.023 50.25C179.789 50.4375 179.561 50.5801 179.338 50.6777L179.027 49.7988C179.164 49.6973 179.301 49.5703 179.438 49.418C179.574 49.2695 179.707 49.0957 179.836 48.8965C179.988 48.6621 180.127 48.3965 180.252 48.0996C180.381 47.8027 180.494 47.4707 180.592 47.1035C180.674 46.7676 180.738 46.3965 180.785 45.9902C180.836 45.584 180.861 45.1445 180.861 44.6719V44.5195C180.861 44.0586 180.836 43.6289 180.785 43.2305C180.738 42.832 180.674 42.4648 180.592 42.1289C180.486 41.7109 180.357 41.3359 180.205 41.0039C180.057 40.6719 179.898 40.3848 179.73 40.1426C179.617 39.9824 179.5 39.8398 179.379 39.7148C179.262 39.5859 179.145 39.4766 179.027 39.3867L179.338 38.5137C179.561 38.6113 179.789 38.7539 180.023 38.9414C180.258 39.1289 180.486 39.3555 180.709 39.6211C180.932 39.8906 181.141 40.1973 181.336 40.541C181.535 40.8809 181.709 41.2578 181.857 41.6719C182.006 42.0859 182.123 42.5332 182.209 43.0137C182.295 43.4902 182.338 43.9961 182.338 44.5312V44.6602ZM195.732 50.4023H194.713V39.4688H195.732V50.4023ZM208.025 44.5312C208.025 43.9805 208.066 43.4629 208.148 42.9785C208.234 42.4902 208.35 42.0391 208.494 41.625C208.639 41.2148 208.807 40.8398 208.998 40.5C209.193 40.1602 209.398 39.8594 209.613 39.5977C209.828 39.3359 210.049 39.1152 210.275 38.9355C210.506 38.752 210.729 38.6113 210.943 38.5137L211.26 39.4043C211.135 39.498 211.01 39.6113 210.885 39.7441C210.76 39.877 210.637 40.0293 210.516 40.2012C210.359 40.4238 210.213 40.6875 210.076 40.9922C209.943 41.2969 209.826 41.6289 209.725 41.9883C209.635 42.3359 209.562 42.7207 209.508 43.1426C209.453 43.5645 209.426 44.0234 209.426 44.5195V44.6719C209.426 45.1602 209.451 45.6113 209.502 46.0254C209.557 46.4395 209.615 46.7695 209.678 47.0156C209.764 47.3594 209.863 47.6777 209.977 47.9707C210.094 48.2637 210.219 48.5195 210.352 48.7383C210.492 48.9766 210.641 49.1836 210.797 49.3594C210.953 49.5352 211.107 49.6816 211.26 49.7988L210.943 50.6777C210.729 50.5801 210.506 50.4395 210.275 50.2559C210.049 50.0723 209.828 49.8496 209.613 49.5879C209.398 49.3301 209.193 49.0312 208.998 48.6914C208.807 48.3516 208.639 47.9746 208.494 47.5605C208.35 47.1504 208.234 46.7031 208.148 46.2188C208.066 45.7344 208.025 45.2148 208.025 44.6602V44.5312ZM219.422 49.2715H214.078V48H219.422V49.2715ZM224.561 50.4023H223.541V39.4688H224.561V50.4023ZM238.975 50.4023H237.955V39.4688H238.975V50.4023ZM262.664 49.2715H257.32V48H262.664V49.2715ZM269.871 49.2715H264.527V48H269.871V49.2715ZM273.674 48.7324H272.156L275.35 39.4688H276.867L273.674 48.7324ZM279.48 39.4688H281.004L284.197 48.7324H282.674L279.48 39.4688ZM295.248 48L292.67 39.4688H294.486L295.934 45.041L296.08 45.6152L296.238 45.0352L297.691 39.4688H299.508L296.924 48H295.248ZM309.709 48.7324H308.191L311.385 39.4688H312.902L309.709 48.7324ZM1.14258 66.4023H0.123047V55.4688H1.14258V66.4023ZM10.418 65.2715H5.07422V64H10.418V65.2715ZM15.5566 66.4023H14.5371V55.4688H15.5566V66.4023ZM29.9707 66.4023H28.9512V55.4688H29.9707V66.4023ZM39.2461 65.2715H33.9023V64H39.2461V65.2715ZM44.3848 66.4023H43.3652V55.4688H44.3848V66.4023ZM48.8555 55.4688H50.3789L53.5723 64.7324H52.0488L48.8555 55.4688ZM60.8672 65.2715H55.5234V64H60.8672V65.2715ZM68.0742 65.2715H62.7305V64H68.0742V65.2715ZM75.2812 65.2715H69.9375V64H75.2812V65.2715ZM80.4199 66.4023H79.4004V55.4688H80.4199V66.4023ZM84.8906 55.4688H86.4141L89.6074 64.7324H88.084L84.8906 55.4688ZM96.9023 65.2715H91.5586V64H96.9023V65.2715ZM104.109 65.2715H98.7656V64H104.109V65.2715ZM109.248 66.4023H108.229V55.4688H109.248V66.4023ZM118.523 65.2715H113.18V64H118.523V65.2715ZM123.662 66.4023H122.643V55.4688H123.662V66.4023ZM138.076 66.4023H137.057V55.4688H138.076V66.4023ZM147.352 65.2715H142.008V64H147.352V65.2715ZM152.49 66.4023H151.471V55.4688H152.49V66.4023ZM156.961 55.4688H158.484L161.678 64.7324H160.154L156.961 55.4688ZM168.973 65.2715H163.629V64H168.973V65.2715ZM176.18 65.2715H170.836V64H176.18V65.2715ZM183.387 65.2715H178.043V64H183.387V65.2715ZM186.404 60.5312C186.404 59.9805 186.445 59.4629 186.527 58.9785C186.613 58.4902 186.729 58.0391 186.873 57.625C187.018 57.2148 187.186 56.8398 187.377 56.5C187.572 56.1602 187.777 55.8594 187.992 55.5977C188.207 55.3359 188.428 55.1152 188.654 54.9355C188.885 54.752 189.107 54.6113 189.322 54.5137L189.639 55.4043C189.514 55.498 189.389 55.6113 189.264 55.7441C189.139 55.877 189.016 56.0293 188.895 56.2012C188.738 56.4238 188.592 56.6875 188.455 56.9922C188.322 57.2969 188.205 57.6289 188.104 57.9883C188.014 58.3359 187.941 58.7207 187.887 59.1426C187.832 59.5645 187.805 60.0234 187.805 60.5195V60.6719C187.805 61.1602 187.83 61.6113 187.881 62.0254C187.936 62.4395 187.994 62.7695 188.057 63.0156C188.143 63.3594 188.242 63.6777 188.355 63.9707C188.473 64.2637 188.598 64.5195 188.73 64.7383C188.871 64.9766 189.02 65.1836 189.176 65.3594C189.332 65.5352 189.486 65.6816 189.639 65.7988L189.322 66.6777C189.107 66.5801 188.885 66.4395 188.654 66.2559C188.428 66.0723 188.207 65.8496 187.992 65.5879C187.777 65.3301 187.572 65.0312 187.377 64.6914C187.186 64.3516 187.018 63.9746 186.873 63.5605C186.729 63.1504 186.613 62.7031 186.527 62.2188C186.445 61.7344 186.404 61.2148 186.404 60.6602V60.5312ZM197.801 65.2715H192.457V64H197.801V65.2715ZM203.959 60.6602C203.959 61.1953 203.916 61.7031 203.83 62.1836C203.744 62.6602 203.627 63.1055 203.479 63.5195C203.33 63.9336 203.156 64.3105 202.957 64.6504C202.762 64.9941 202.553 65.2988 202.33 65.5645C202.107 65.834 201.879 66.0625 201.645 66.25C201.41 66.4375 201.182 66.5801 200.959 66.6777L200.648 65.7988C200.785 65.6973 200.922 65.5703 201.059 65.418C201.195 65.2695 201.328 65.0957 201.457 64.8965C201.609 64.6621 201.748 64.3965 201.873 64.0996C202.002 63.8027 202.115 63.4707 202.213 63.1035C202.295 62.7676 202.359 62.3965 202.406 61.9902C202.457 61.584 202.482 61.1445 202.482 60.6719V60.5195C202.482 60.0586 202.457 59.6289 202.406 59.2305C202.359 58.832 202.295 58.4648 202.213 58.1289C202.107 57.7109 201.979 57.3359 201.826 57.0039C201.678 56.6719 201.52 56.3848 201.352 56.1426C201.238 55.9824 201.121 55.8398 201 55.7148C200.883 55.5859 200.766 55.4766 200.648 55.3867L200.959 54.5137C201.182 54.6113 201.41 54.7539 201.645 54.9414C201.879 55.1289 202.107 55.3555 202.33 55.6211C202.553 55.8906 202.762 56.1973 202.957 56.541C203.156 56.8809 203.33 57.2578 203.479 57.6719C203.627 58.0859 203.744 58.5332 203.83 59.0137C203.916 59.4902 203.959 59.9961 203.959 60.5312V60.6602ZM212.215 65.2715H206.871V64H212.215V65.2715ZM219.422 65.2715H214.078V64H219.422V65.2715ZM224.578 63.8711C224.578 64.3164 224.467 64.7676 224.244 65.2246C224.025 65.6816 223.74 66.0664 223.389 66.3789L222.527 65.9336C222.676 65.6523 222.801 65.3574 222.902 65.0488C223.004 64.7441 223.055 64.377 223.055 63.9473V62.5762H224.584L224.578 63.8711ZM233.836 65.2715H228.492V64H233.836V65.2715ZM238.975 66.4023H237.955V55.4688H238.975V66.4023ZM243.445 55.4688H244.969L248.162 64.7324H246.639L243.445 55.4688ZM255.457 65.2715H250.113V64H255.457V65.2715ZM262.664 65.2715H257.32V64H262.664V65.2715ZM269.871 65.2715H264.527V64H269.871V65.2715ZM275.01 66.4023H273.99V55.4688H275.01V66.4023ZM286.688 55.4688H288.211L291.404 64.7324H289.881L286.688 55.4688ZM298.699 65.2715H293.355V64H298.699V65.2715ZM302.502 64.7324H300.984L304.178 55.4688H305.695L302.502 64.7324Z" fill="white"/>
</svg>
